<svg
 xmlns="http://www.w3.org/2000/svg"
 xmlns:xlink="http://www.w3.org/1999/xlink"
 width="45px" height="45px">
<path fill-rule="evenodd"  fill="rgb(140, 135, 181)"
 d="M22.500,-0.000 C34.926,-0.000 45.000,10.074 45.000,22.500 C45.000,34.926 34.926,45.000 22.500,45.000 C10.074,45.000 0.000,34.926 0.000,22.500 C0.000,10.074 10.074,-0.000 22.500,-0.000 Z"/>
<path fill-rule="evenodd"  fill="rgb(255, 255, 255)"
 d="M10.877,25.327 L10.877,15.035 C10.877,14.464 11.356,14.000 11.947,14.000 L22.579,14.000 C23.170,14.000 23.649,14.464 23.649,15.035 L23.649,25.327 C23.649,25.517 23.489,25.672 23.292,25.672 L11.234,25.672 C11.037,25.672 10.877,25.517 10.877,25.327 ZM19.462,28.852 C19.462,30.039 18.468,31.000 17.242,31.000 C16.017,31.000 15.023,30.039 15.023,28.852 C15.023,27.666 16.017,26.705 17.242,26.705 C18.468,26.705 19.462,27.666 19.462,28.852 ZM18.352,28.852 C18.352,28.259 17.855,27.778 17.242,27.778 C16.629,27.778 16.133,28.259 16.133,28.852 C16.133,29.445 16.629,29.926 17.242,29.926 C17.855,29.926 18.352,29.445 18.352,28.852 ZM15.331,26.705 L10.357,26.705 C10.160,26.705 10.000,26.859 10.000,27.050 L10.000,28.097 C10.000,28.288 10.160,28.442 10.357,28.442 L14.344,28.442 C14.448,27.751 14.808,27.141 15.331,26.705 ZM31.076,28.852 C31.076,30.039 30.082,31.000 28.856,31.000 C27.630,31.000 26.637,30.039 26.637,28.852 C26.637,27.666 27.630,26.705 28.856,26.705 C30.082,26.705 31.076,27.666 31.076,28.852 ZM29.966,28.852 C29.966,28.259 29.469,27.778 28.856,27.778 C28.243,27.778 27.746,28.259 27.746,28.852 C27.746,29.445 28.243,29.926 28.856,29.926 C29.469,29.926 29.966,29.445 29.966,28.852 ZM35.000,27.050 L35.000,28.097 C35.000,28.288 34.840,28.442 34.643,28.442 L31.755,28.442 C31.548,27.071 30.329,26.014 28.856,26.014 C27.383,26.014 26.164,27.071 25.957,28.442 L20.141,28.442 C20.037,27.751 19.677,27.141 19.154,26.705 L24.669,26.705 L24.669,16.832 C24.669,16.451 24.988,16.142 25.382,16.142 L28.750,16.142 C29.698,16.142 30.585,16.597 31.115,17.358 L33.286,20.469 C33.605,20.926 33.775,21.464 33.775,22.014 L33.775,26.705 L34.643,26.705 C34.840,26.705 35.000,26.859 35.000,27.050 ZM31.381,20.549 L29.645,18.162 C29.578,18.070 29.469,18.015 29.353,18.015 L26.645,18.015 C26.448,18.015 26.288,18.170 26.288,18.361 L26.288,20.748 C26.288,20.938 26.448,21.093 26.645,21.093 L31.089,21.093 C31.378,21.093 31.547,20.778 31.381,20.549 Z"/>
</svg>
