<svg
 xmlns="http://www.w3.org/2000/svg"
 xmlns:xlink="http://www.w3.org/1999/xlink"
 width="45px" height="45px">
<path fill-rule="evenodd"  fill="rgb(140, 135, 181)"
 d="M22.500,-0.000 C34.926,-0.000 45.000,10.074 45.000,22.500 C45.000,34.926 34.926,45.000 22.500,45.000 C10.074,45.000 0.000,34.926 0.000,22.500 C0.000,10.074 10.074,-0.000 22.500,-0.000 Z"/>
<path fill-rule="evenodd"  fill="rgb(255, 255, 255)"
 d="M35.561,28.318 C35.426,28.447 35.267,28.548 35.089,28.610 C34.952,28.658 34.806,28.686 34.652,28.686 L34.617,28.686 L26.618,28.686 C25.874,28.686 25.271,28.056 25.271,27.280 L25.271,25.723 L25.271,25.287 L25.271,24.851 L25.271,24.152 C25.271,23.376 25.874,22.746 26.618,22.746 L32.666,22.746 L34.173,22.746 L34.590,22.746 L34.617,22.746 L34.652,22.746 C34.806,22.746 34.952,22.774 35.089,22.822 C35.267,22.886 35.426,22.985 35.561,23.114 C35.830,23.370 36.000,23.741 36.000,24.152 L36.000,27.280 C36.000,27.691 35.830,28.062 35.561,28.318 ZM29.432,25.529 C29.432,25.141 29.130,24.826 28.758,24.826 L28.424,24.826 L28.311,24.826 C28.155,24.826 28.012,24.885 27.896,24.978 C27.737,25.104 27.637,25.304 27.637,25.529 L27.637,25.996 C27.637,26.384 27.939,26.698 28.311,26.698 L28.758,26.698 C29.130,26.698 29.432,26.384 29.432,25.996 L29.432,25.529 ZM33.911,21.770 L33.494,21.770 L26.616,21.770 C26.524,21.770 26.432,21.776 26.343,21.787 C25.810,21.852 25.333,22.111 24.977,22.493 C24.575,22.923 24.327,23.511 24.327,24.157 L24.327,25.124 L24.327,25.560 L24.327,25.996 L24.327,27.283 C24.327,28.602 25.354,29.673 26.618,29.673 L34.615,29.673 L34.615,33.594 C34.615,34.370 34.011,35.000 33.267,35.000 L13.348,35.000 C12.604,35.000 12.000,34.370 12.000,33.594 L12.000,19.704 L12.000,18.102 L12.000,17.933 C12.000,17.807 12.019,17.683 12.049,17.565 C12.097,17.376 12.183,17.205 12.296,17.056 C12.544,16.733 12.924,16.527 13.350,16.527 L14.153,16.527 L14.393,16.527 L15.687,16.527 L17.223,16.527 L28.939,16.527 L32.127,16.527 L32.545,16.527 L32.963,16.527 L33.270,16.527 C34.014,16.527 34.617,17.157 34.615,17.933 L34.615,21.770 L34.329,21.770 L33.911,21.770 ZM20.678,15.543 L27.543,13.590 L29.790,12.949 C29.909,12.915 30.028,12.898 30.146,12.898 C30.739,12.898 31.284,13.309 31.445,13.935 L31.866,15.543 L28.470,15.543 L20.678,15.543 ZM16.299,15.543 L24.864,11.116 C25.529,10.770 26.338,11.057 26.669,11.751 L27.176,12.819 L17.609,15.543 L16.299,15.543 Z"/>
</svg>
