<svg
 xmlns="http://www.w3.org/2000/svg"
 xmlns:xlink="http://www.w3.org/1999/xlink"
 width="45px" height="45px">
<path fill-rule="evenodd"  fill="rgb(140, 135, 181)"
 d="M22.500,-0.000 C34.926,-0.000 45.000,10.074 45.000,22.500 C45.000,34.926 34.926,45.000 22.500,45.000 C10.074,45.000 -0.000,34.926 -0.000,22.500 C-0.000,10.074 10.074,-0.000 22.500,-0.000 Z"/>
<path fill-rule="evenodd"  fill="rgb(255, 255, 255)"
 d="M34.627,32.000 L19.492,32.000 L19.492,23.227 L21.207,25.666 C21.446,26.006 21.934,26.106 22.304,25.874 C22.668,25.644 22.766,25.179 22.523,24.834 L21.261,23.038 C21.424,23.070 21.588,23.107 21.754,23.107 C22.794,23.107 23.739,22.500 24.095,21.500 L37.000,21.500 L37.000,29.750 C37.000,30.991 35.936,32.000 34.627,32.000 ZM33.045,24.500 L26.611,24.500 C26.174,24.500 25.820,24.835 25.820,25.250 C25.820,25.665 26.174,26.000 26.611,26.000 L33.045,26.000 C33.482,26.000 33.836,25.665 33.836,25.250 C33.836,24.835 33.482,24.500 33.045,24.500 ZM33.045,27.500 L26.611,27.500 C26.174,27.500 25.820,27.835 25.820,28.250 C25.820,28.665 26.174,29.000 26.611,29.000 L33.045,29.000 C33.482,29.000 33.836,28.665 33.836,28.250 C33.836,27.835 33.482,27.500 33.045,27.500 ZM22.656,20.751 C22.656,21.434 21.854,21.842 21.254,21.463 L20.127,20.750 L21.254,20.037 C21.852,19.660 22.656,20.064 22.656,20.751 ZM20.377,18.789 L19.492,19.349 L19.492,14.000 L34.627,14.000 C35.936,14.000 37.000,15.009 37.000,16.250 L37.000,20.000 L24.095,20.000 C23.556,18.486 21.705,17.948 20.377,18.789 ZM10.000,29.750 L10.000,21.500 L13.307,21.500 C13.662,22.497 14.606,23.107 15.648,23.107 C15.815,23.107 15.978,23.070 16.142,23.038 L14.879,24.834 C14.636,25.179 14.735,25.644 15.098,25.874 C15.462,26.101 15.953,26.009 16.195,25.666 L17.910,23.227 L17.910,32.000 L12.373,32.000 C11.065,32.000 10.000,30.991 10.000,29.750 ZM16.148,20.037 L17.275,20.750 L16.148,21.463 C15.545,21.843 14.746,21.433 14.746,20.749 C14.746,20.067 15.547,19.658 16.148,20.037 ZM13.308,20.000 L10.000,20.000 L10.000,16.250 C10.000,15.009 11.065,14.000 12.373,14.000 L17.910,14.000 L17.910,19.349 L17.026,18.789 C15.683,17.942 13.843,18.497 13.308,20.000 Z"/>
</svg>
